HIERARCHY
ROOT hip
{
	OFFSET 0.000000 0.000000 0.000000
	CHANNELS 6 Xposition Yposition Zposition Xrotation Zrotation Yrotation 
	JOINT abdomen
	{
		OFFSET 0.000000 3.422050 0.000000
		CHANNELS 3 Xrotation Zrotation Yrotation 
		JOINT chest
		{
			OFFSET 0.000000 8.486693 -0.684411
			CHANNELS 3 Xrotation Zrotation Yrotation 
			JOINT neck
			{
				OFFSET 0.000000 10.266162 -0.273764
				CHANNELS 3 Xrotation Zrotation Yrotation 
				JOINT head
				{
					OFFSET 0.000000 3.148285 0.000000
					CHANNELS 3 Xrotation Zrotation Yrotation 
					End Site
					{
						OFFSET 0.000000 3.148289 0.000000
					}
				}
			}
			JOINT lCollar
			{
				OFFSET 3.422053 6.707223 -0.821293
				CHANNELS 3 Yrotation Zrotation Xrotation 
				JOINT lShldr
				{
					OFFSET 3.285171 0.000000 0.000000
					CHANNELS 3 Zrotation Yrotation Xrotation 
					JOINT lForeArm
					{
						OFFSET 10.129278 0.000000 0.000000
						CHANNELS 3 Yrotation Zrotation Xrotation 
						JOINT lHand
						{
							OFFSET 8.486692 0.000000 0.000000
							CHANNELS 3 Zrotation Yrotation Xrotation 
							End Site
							{
								OFFSET 4.106464 0.000000 0.000000
							}
						}
					}
				}
			}
			JOINT rCollar
			{
				OFFSET -3.558935 6.707223 -0.821293
				CHANNELS 3 Yrotation Zrotation Xrotation 
				JOINT rShldr
				{
					OFFSET -3.148289 0.000000 0.000000
					CHANNELS 3 Zrotation Yrotation Xrotation 
					JOINT rForeArm
					{
						OFFSET -10.266159 0.000000 0.000000
						CHANNELS 3 Yrotation Zrotation Xrotation 
						JOINT rHand
						{
							OFFSET -8.349810 0.000000 0.000000
							CHANNELS 3 Zrotation Yrotation Xrotation 
							End Site
							{
								OFFSET -4.106464 0.000000 0.000000
							}
						}
					}
				}
			}
		}
	}
	JOINT lThigh
	{
		OFFSET 5.338403 -1.642589 1.368821
		CHANNELS 3 Xrotation Zrotation Yrotation 
		JOINT lShin
		{
			OFFSET -2.053232 -20.121670 0.000000
			CHANNELS 3 Xrotation Zrotation Yrotation 
			JOINT lFoot
			{
				OFFSET 0.000000 -19.300380 -1.231939
				CHANNELS 3 Xrotation Yrotation Zrotation 
				End Site
				{
					OFFSET 0.000000 -2.463878 4.653993
				}
			}
		}
	}
	JOINT rThigh
	{
		OFFSET -5.338403 -1.642589 1.368821
		CHANNELS 3 Xrotation Zrotation Yrotation 
		JOINT rShin
		{
			OFFSET 2.053232 -20.121670 0.000000
			CHANNELS 3 Xrotation Zrotation Yrotation 
			JOINT rFoot
			{
				OFFSET 0.000000 -19.300380 -1.231939
				CHANNELS 3 Xrotation Yrotation Zrotation 
				End Site
				{
					OFFSET 0.000000 -2.463878 4.653993
				}
			}
		}
	}
}
MOTION
Frames: 13
Frame Time: 0.033264
0.063078 12.671093 -23.522278 0.000000 0.000000 0.000000 19.103830 -4.100574 -1.073293 1.078512 17.598921 -7.057412 0.000000 0.000000 0.000000 15.999317 -27.999952 -13.001573 -20.565376 -12.046211 -2.766732 29.303461 -5.517808 -60.441875 -70.339752 4.581995 17.123676 25.997908 0.000000 0.000000 64.907097 34.600719 -8.232852 4.737695 19.353497 0.998544 15.554191 1.694062 -1.592220 18.069786 23.518820 4.202019 -51.482727 6.586441 -0.015659 144.808624 5.613261 -0.765928 56.839844 8.289905 3.635963 -51.581436 -5.568869 -0.054189 144.820786 -5.457131 0.759836 57.668148 -8.145471 -2.687452 
0.063078 12.671093 -23.522278 0.000000 0.000000 0.000000 19.068480 -4.101117 -1.071213 0.953915 17.600780 -7.095149 0.000000 0.000000 0.000000 15.999317 -27.999952 -13.001573 -20.565374 -12.046210 -2.766732 29.303459 -5.517808 -60.441868 -70.339752 4.581995 17.123676 25.997908 0.000000 0.000000 64.907097 34.600719 -8.232852 4.714586 19.252806 0.992131 15.554191 1.694062 -1.592220 18.069786 23.518820 4.202019 -51.482719 6.586440 -0.015659 144.808624 5.613261 -0.765928 56.839844 8.289905 3.635963 -51.581436 -5.568869 -0.054189 144.820786 -5.457131 0.759836 57.668148 -8.145470 -2.687452 
0.063078 12.671093 -23.522278 0.000000 0.000000 0.000000 19.033123 -4.101657 -1.069133 0.829330 17.602554 -7.132885 0.000000 0.000000 0.000000 15.999317 -27.999952 -13.001573 -20.565374 -12.046210 -2.766732 29.303461 -5.517808 -60.441875 -70.339752 4.581995 17.123676 25.997908 0.000000 0.000000 64.907097 34.600719 -8.232852 4.691507 19.152132 0.985766 15.554191 1.694062 -1.592220 18.069786 23.518820 4.202019 -51.482719 6.586440 -0.015659 144.808624 5.613261 -0.765928 56.839844 8.289905 3.635963 -51.581436 -5.568869 -0.054189 144.820786 -5.457131 0.759836 57.668148 -8.145470 -2.687452 
0.063078 12.671093 -23.522278 0.000000 0.000000 0.000000 18.997770 -4.102196 -1.067052 0.704759 17.604252 -7.170619 0.000000 0.000000 0.000000 15.999317 -27.999952 -13.001573 -20.565374 -12.046210 -2.766732 29.303459 -5.517808 -60.441860 -70.339752 4.581995 17.123676 25.997908 0.000000 0.000000 64.907097 34.600719 -8.232852 4.668453 19.051455 0.979447 15.554191 1.694063 -1.592220 18.069786 23.518820 4.202019 -51.482719 6.586440 -0.015659 144.808624 5.613261 -0.765928 56.839844 8.289905 3.635963 -51.581436 -5.568869 -0.054189 144.820786 -5.457131 0.759836 57.668148 -8.145470 -2.687452 
0.063078 12.671093 -23.522278 0.000000 0.000000 0.000000 18.962420 -4.102733 -1.064971 0.580203 17.605875 -7.208354 0.000000 0.000000 0.000000 15.999317 -27.999952 -13.001573 -20.565372 -12.046209 -2.766732 29.303461 -5.517807 -60.441875 -70.339752 4.581995 17.123676 25.997908 0.000000 0.000000 64.907097 34.600719 -8.232852 4.645430 18.950796 0.973177 15.554191 1.694062 -1.592220 18.069786 23.518820 4.202019 -51.482719 6.586440 -0.015659 144.808624 5.613261 -0.765928 56.839844 8.289905 3.635963 -51.581436 -5.568869 -0.054189 144.820786 -5.457131 0.759836 57.668148 -8.145470 -2.687452 
0.063078 12.671093 -23.522278 0.000000 0.000000 0.000000 18.927065 -4.103270 -1.062889 0.455662 17.607414 -7.246086 0.000000 0.000000 0.000000 15.999317 -27.999952 -13.001573 -20.565374 -12.046210 -2.766732 29.303455 -5.517809 -60.441860 -70.339752 4.581995 17.123676 25.997908 0.000000 0.000000 64.907097 34.600719 -8.232852 4.622434 18.850138 0.966953 15.554191 1.694062 -1.592220 18.069786 23.518820 4.202019 -51.482719 6.586440 -0.015659 144.808624 5.613261 -0.765928 56.839844 8.289905 3.635963 -51.581436 -5.568869 -0.054189 144.820786 -5.457131 0.759836 57.668148 -8.145470 -2.687452 
0.063078 12.671093 -23.522278 0.000000 0.000000 0.000000 18.891710 -4.103805 -1.060808 0.331136 17.608881 -7.283820 0.000000 0.000000 0.000000 15.999317 -27.999952 -13.001573 -20.565374 -12.046210 -2.766732 29.303461 -5.517807 -60.441868 -70.339752 4.581995 17.123676 25.997908 0.000000 0.000000 64.907097 34.600719 -8.232851 4.599466 18.749496 0.960777 15.554191 1.694062 -1.592220 18.069786 23.518820 4.202019 -51.482719 6.586440 -0.015659 144.808624 5.613261 -0.765928 56.839844 8.289905 3.635963 -51.581436 -5.568869 -0.054189 144.820786 -5.457131 0.759836 57.668148 -8.145470 -2.687452 
0.063078 12.671093 -23.522278 0.000000 0.000000 0.000000 18.856358 -4.104339 -1.058726 0.206625 17.610268 -7.321549 0.000000 0.000000 0.000000 15.999317 -27.999952 -13.001573 -20.565374 -12.046211 -2.766732 29.303459 -5.517810 -60.441868 -70.339752 4.581995 17.123676 25.997908 0.000000 0.000000 64.907097 34.600719 -8.232852 4.576526 18.648855 0.954647 15.554189 1.694062 -1.592220 18.069786 23.518820 4.202019 -51.482719 6.586440 -0.015659 144.808624 5.613261 -0.765928 56.839844 8.289905 3.635963 -51.581436 -5.568869 -0.054189 144.820786 -5.457131 0.759836 57.668140 -8.145470 -2.687452 
0.063078 12.671093 -23.522278 0.000000 0.000000 0.000000 18.821009 -4.104870 -1.056643 0.082129 17.611574 -7.359279 0.000000 0.000000 0.000000 15.999317 -27.999952 -13.001573 -20.565374 -12.046210 -2.766732 29.303461 -5.517807 -60.441868 -70.339752 4.581995 17.123676 25.997908 0.000000 0.000000 64.907097 34.600719 -8.232852 4.553610 18.548220 0.948564 15.554191 1.694062 -1.592220 18.069786 23.518820 4.202019 -51.482719 6.586440 -0.015659 144.808624 5.613261 -0.765928 56.839844 8.289905 3.635963 -51.581436 -5.568869 -0.054189 144.820786 -5.457131 0.759836 57.668140 -8.145470 -2.687452 
0.063078 12.671093 -23.522278 0.000000 0.000000 0.000000 18.785660 -4.105402 -1.054561 -0.042348 17.612803 -7.397005 0.000000 0.000000 0.000000 15.999317 -27.999952 -13.001573 -20.565372 -12.046209 -2.766732 29.303459 -5.517810 -60.441868 -70.339752 4.581995 17.123676 25.997908 0.000000 0.000000 64.907097 34.600719 -8.232851 4.530725 18.447603 0.942528 15.554191 1.694062 -1.592220 18.069786 23.518820 4.202019 -51.482719 6.586440 -0.015659 144.808624 5.613261 -0.765928 56.839844 8.289905 3.635963 -51.581436 -5.568869 -0.054189 144.820786 -5.457131 0.759836 57.668140 -8.145470 -2.687452 
0.063078 12.671093 -23.522278 0.000000 0.000000 0.000000 18.750311 -4.105932 -1.052478 -0.166811 17.613951 -7.434728 0.000000 0.000000 0.000000 15.999317 -27.999952 -13.001573 -20.565374 -12.046210 -2.766732 29.303461 -5.517807 -60.441868 -70.339752 4.581995 17.123676 25.997908 0.000000 0.000000 64.907097 34.600719 -8.232852 4.507866 18.346989 0.936538 15.554191 1.694063 -1.592220 18.069786 23.518820 4.202019 -51.482719 6.586440 -0.015659 144.808624 5.613261 -0.765928 56.839844 8.289905 3.635963 -51.581436 -5.568869 -0.054189 144.820786 -5.457131 0.759836 57.668140 -8.145470 -2.687452 
0.063078 12.671093 -23.522278 0.000000 0.000000 0.000000 18.714958 -4.106461 -1.050395 -0.291256 17.615023 -7.472446 0.000000 0.000000 0.000000 15.999317 -27.999952 -13.001573 -20.565374 -12.046210 -2.766732 29.303459 -5.517810 -60.441868 -70.339752 4.581995 17.123676 25.997908 0.000000 0.000000 64.907097 34.600719 -8.232852 4.485034 18.246382 0.930595 15.554189 1.694062 -1.592220 18.069786 23.518820 4.202019 -51.482719 6.586440 -0.015659 144.808624 5.613261 -0.765928 56.839844 8.289905 3.635963 -51.581436 -5.568869 -0.054189 144.820786 -5.457131 0.759836 57.668140 -8.145470 -2.687452 
0.063078 12.671093 -23.522278 0.000000 0.000000 0.000000 18.679607 -4.106988 -1.048312 -0.415685 17.616020 -7.510166 0.000000 0.000000 0.000000 15.999317 -27.999952 -13.001573 -20.565374 -12.046211 -2.766732 29.303459 -5.517808 -60.441868 -70.339752 4.581995 17.123676 25.997908 0.000000 0.000000 64.907097 34.600719 -8.232852 4.462227 18.145784 0.924698 15.554191 1.694062 -1.592220 18.069786 23.518820 4.202019 -51.482719 6.586440 -0.015659 144.808624 5.613261 -0.765928 56.839844 8.289905 3.635963 -51.581436 -5.568869 -0.054189 144.820786 -5.457131 0.759836 57.668140 -8.145470 -2.687452 
